<svg width="24" height="25" viewBox="0 0 24 25" fill="none" xmlns="http://www.w3.org/2000/svg">
<g clip-path="url(#clip0_4_445)">
<path d="M12 8.54545C8.98909 8.54545 6.54545 10.9891 6.54545 14C6.54545 17.0109 8.98909 19.4545 12 19.4545C15.0109 19.4545 17.4545 17.0109 17.4545 14C17.4545 10.9891 15.0109 8.54545 12 8.54545ZM1.09091 15.0909H3.27273C3.87273 15.0909 4.36364 14.6 4.36364 14C4.36364 13.4 3.87273 12.9091 3.27273 12.9091H1.09091C0.490909 12.9091 0 13.4 0 14C0 14.6 0.490909 15.0909 1.09091 15.0909ZM20.7273 15.0909H22.9091C23.5091 15.0909 24 14.6 24 14C24 13.4 23.5091 12.9091 22.9091 12.9091H20.7273C20.1273 12.9091 19.6364 13.4 19.6364 14C19.6364 14.6 20.1273 15.0909 20.7273 15.0909ZM10.9091 3.09091V5.27273C10.9091 5.87273 11.4 6.36364 12 6.36364C12.6 6.36364 13.0909 5.87273 13.0909 5.27273V3.09091C13.0909 2.49091 12.6 2 12 2C11.4 2 10.9091 2.49091 10.9091 3.09091ZM10.9091 22.7273V24.9091C10.9091 25.5091 11.4 26 12 26C12.6 26 13.0909 25.5091 13.0909 24.9091V22.7273C13.0909 22.1273 12.6 21.6364 12 21.6364C11.4 21.6364 10.9091 22.1273 10.9091 22.7273ZM5.44364 5.90545C5.01818 5.48 4.32 5.48 3.90545 5.90545C3.48 6.33091 3.48 7.02909 3.90545 7.44364L5.06182 8.6C5.48727 9.02545 6.18545 9.02545 6.6 8.6C7.01455 8.17455 7.02545 7.47636 6.6 7.06182L5.44364 5.90545ZM18.9382 19.4C18.5127 18.9745 17.8145 18.9745 17.4 19.4C16.9745 19.8255 16.9745 20.5236 17.4 20.9382L18.5564 22.0945C18.9818 22.52 19.68 22.52 20.0945 22.0945C20.52 21.6691 20.52 20.9709 20.0945 20.5564L18.9382 19.4ZM20.0945 7.44364C20.52 7.01818 20.52 6.32 20.0945 5.90545C19.6691 5.48 18.9709 5.48 18.5564 5.90545L17.4 7.06182C16.9745 7.48727 16.9745 8.18545 17.4 8.6C17.8255 9.01455 18.5236 9.02545 18.9382 8.6L20.0945 7.44364ZM6.6 20.9382C7.02545 20.5127 7.02545 19.8145 6.6 19.4C6.17455 18.9745 5.47636 18.9745 5.06182 19.4L3.90545 20.5564C3.48 20.9818 3.48 21.68 3.90545 22.0945C4.33091 22.5091 5.02909 22.52 5.44364 22.0945L6.6 20.9382Z" fill="#00FFFF" fill-opacity="0.8"/>
</g>
<defs>
<clipPath id="clip0_4_445">
<rect width="24" height="24" fill="white" transform="translate(0 0.5)"/>
</clipPath>
</defs>
</svg>
