<svg width="24" height="27" viewBox="0 0 24 27" fill="none" xmlns="http://www.w3.org/2000/svg">
<g clip-path="url(#clip0_4_426)">
<path d="M20 21.1799C18.38 21.1799 17.36 21.7842 16.46 22.3309C15.68 22.8058 15.044 23.1942 14 23.1942C12.92 23.1942 12.32 22.8345 11.54 22.3309C10.64 21.7842 9.656 21.1799 8 21.1799C6.344 21.1799 5.36 21.7842 4.46 22.3309C3.68 22.8058 3.056 23.1942 2 23.1942V26C3.62 26 4.64 25.3957 5.54 24.8489C6.32 24.3741 6.944 23.9856 8 23.9856C9.056 23.9856 9.68 24.3453 10.46 24.8489C11.36 25.3957 12.344 26 14 26C15.656 26 16.64 25.3957 17.54 24.8489C18.32 24.3741 18.956 23.9856 20 23.9856C21.08 23.9856 21.68 24.3453 22.46 24.8489C23.36 25.3957 24.356 26 26 26V23.1942C24.92 23.1942 24.32 22.8345 23.54 22.3309C22.64 21.7842 21.62 21.1799 20 21.1799ZM20 14.777C18.38 14.777 17.36 15.3957 16.46 15.9281C15.68 16.3885 15.044 16.7914 14 16.7914C12.92 16.7914 12.32 16.4317 11.54 15.9281C10.64 15.3813 9.656 14.777 8 14.777C6.344 14.777 5.36 15.3957 4.46 15.9281C3.68 16.3885 3.056 16.7914 2 16.7914V19.5971C3.62 19.5971 4.64 18.9784 5.54 18.446C6.32 17.9424 6.92 17.5827 8 17.5827C9.08 17.5827 9.68 17.9424 10.46 18.446C11.36 18.9928 12.344 19.5971 14 19.5971C15.656 19.5971 16.64 18.9784 17.54 18.446C18.32 17.9424 18.92 17.5827 20 17.5827C21.08 17.5827 21.68 17.9424 22.46 18.446C23.36 18.9928 24.356 19.5971 26 19.5971V16.7914C24.92 16.7914 24.32 16.4317 23.54 15.9281C22.64 15.3813 21.62 14.777 20 14.777ZM23.54 3.15108C22.64 2.60432 21.644 2 20 2C18.356 2 17.36 2.60432 16.46 3.15108C15.68 3.61151 15.044 4.01439 14 4.01439C12.92 4.01439 12.32 3.65468 11.54 3.15108C10.64 2.6187 9.656 2 8 2C6.344 2 5.36 2.60432 4.46 3.15108C3.68 3.6259 3.056 4.01439 2 4.01439V6.79137C3.62 6.79137 4.64 6.17266 5.54 5.64029C6.32 5.16547 6.944 4.77698 8 4.77698C9.056 4.77698 9.68 5.13669 10.46 5.64029C11.36 6.18705 12.344 6.79137 14 6.79137C15.656 6.79137 16.64 6.17266 17.54 5.64029C18.32 5.17986 18.956 4.77698 20 4.77698C21.08 4.77698 21.68 5.13669 22.46 5.64029C23.36 6.18705 24.356 6.79137 26 6.79137V3.98561C24.92 3.98561 24.32 3.6259 23.54 3.15108ZM20 8.3741C18.38 8.3741 17.36 8.99281 16.46 9.52518C15.68 10.0288 15.08 10.3885 14 10.3885C12.92 10.3885 12.32 10.0288 11.54 9.52518C10.64 8.97842 9.656 8.3741 8 8.3741C6.344 8.3741 5.36 8.99281 4.46 9.52518C3.68 10.0288 3.08 10.3885 2 10.3885V13.1942C3.62 13.1942 4.64 12.5755 5.54 12.0432C6.32 11.5827 6.956 11.1799 8 11.1799C9.044 11.1799 9.68 11.5396 10.46 12.0432C11.36 12.5899 12.344 13.1942 14 13.1942C15.656 13.1942 16.64 12.5755 17.54 12.0432C18.32 11.5827 18.956 11.1799 20 11.1799C21.08 11.1799 21.68 11.5396 22.46 12.0432C23.36 12.5899 24.356 13.1942 26 13.1942V10.3885C24.92 10.3885 24.32 10.0288 23.54 9.52518C22.64 8.97842 21.62 8.3741 20 8.3741Z" fill="white" fill-opacity="0.35"/>
</g>
<defs>
<clipPath id="clip0_4_426">
<rect width="24" height="26" fill="white" transform="translate(0 0.5)"/>
</clipPath>
</defs>
</svg>
