<svg width="24" height="25" viewBox="0 0 24 25" fill="none" xmlns="http://www.w3.org/2000/svg">
<path fill-rule="evenodd" clip-rule="evenodd" d="M15.024 22.5C16.277 22.5 17.352 22.434 18.251 22.235C19.161 22.032 19.949 21.68 20.565 21.065C21.18 20.449 21.532 19.661 21.735 18.751C21.935 17.852 22 16.777 22 15.524V12.5C22 11.9696 21.7893 11.4609 21.4142 11.0858C21.0391 10.7107 20.5304 10.5 20 10.5H12C11.4696 10.5 10.9609 10.7107 10.5858 11.0858C10.2107 11.4609 10 11.9696 10 12.5V20.5C10 21.0304 10.2107 21.5391 10.5858 21.9142C10.9609 22.2893 11.4696 22.5 12 22.5H15.024ZM2 15.524C2 16.777 2.066 17.852 2.266 18.751C2.468 19.661 2.82 20.449 3.436 21.065C4.051 21.68 4.839 22.032 5.749 22.235C5.836 22.254 5.924 22.272 6.012 22.289C7.096 22.499 8 21.581 8 20.476V12.5C8 11.9696 7.78929 11.4609 7.41421 11.0858C7.03914 10.7107 6.53043 10.5 6 10.5H4C3.46957 10.5 2.96086 10.7107 2.58579 11.0858C2.21071 11.4609 2 11.9696 2 12.5V15.524ZM8.976 2.5C7.723 2.5 6.648 2.566 5.749 2.766C4.839 2.968 4.051 3.32 3.435 3.936C2.82 4.551 2.468 5.339 2.265 6.249C2.249 6.324 2.233 6.399 2.219 6.474C2.004 7.573 2.939 8.5 4.059 8.5H19.976C21.081 8.5 21.999 7.596 21.789 6.512C21.7719 6.42409 21.7535 6.33641 21.734 6.249C21.532 5.339 21.18 4.551 20.564 3.935C19.949 3.32 19.161 2.968 18.251 2.765C17.352 2.565 16.277 2.5 15.024 2.5H8.976Z" fill="#00FFFF" fill-opacity="0.35"/>
</svg>
