<svg width="48" height="33" viewBox="0 0 48 33" fill="none" xmlns="http://www.w3.org/2000/svg">
<g clip-path="url(#clip0_4_481)">
<path d="M33.2 15.95V6.35C33.2 4.358 29.984 2.75 26 2.75C22.016 2.75 18.8 4.358 18.8 6.35V15.95C15.896 17.042 14 18.794 14 20.75C14 24.062 19.376 26.75 26 26.75C32.624 26.75 38 24.062 38 20.75C38 18.794 36.104 17.042 33.2 15.95ZM23.6 13.55V6.35C23.6 5.69 24.68 5.15 26 5.15C27.32 5.15 28.4 5.69 28.4 6.35V7.55H26V8.75H28.4V9.95V11.15H26V12.35H28.4V13.55H23.6Z" fill="#00FFFF" fill-opacity="0.8"/>
</g>
<defs>
<clipPath id="clip0_4_481">
<rect width="48" height="33" fill="white"/>
</clipPath>
</defs>
</svg>
