<!-- Wind Speed/Direction -->
<svg width="24" height="25" viewBox="0 0 24 25" fill="none" xmlns="http://www.w3.org/2000/svg">
<g clip-path="url(#clip0_4_276)">
<g clip-path="url(#clip1_4_276)">
<path d="M14.5 19C14.5 20.65 13.15 22 11.5 22C9.85 22 8.5 20.65 8.5 19H10.5C10.5 19.55 10.95 20 11.5 20C12.05 20 12.5 19.55 12.5 19C12.5 18.45 12.05 18 11.5 18H2V16H11.5C13.15 16 14.5 17.35 14.5 19ZM19 8.5C19 6.57 17.43 5 15.5 5C13.57 5 12 6.57 12 8.5H14C14 7.67 14.67 7 15.5 7C16.33 7 17 7.67 17 8.5C17 9.33 16.33 10 15.5 10H2V12H15.5C17.43 12 19 10.43 19 8.5ZM18.5 13H2V15H18.5C19.33 15 20 15.67 20 16.5C20 17.33 19.33 18 18.5 18V20C20.43 20 22 18.43 22 16.5C22 14.57 20.43 13 18.5 13Z" fill="white" fill-opacity="0.35"/>
</g>
</g>
<defs>
<clipPath id="clip0_4_276">
<rect width="24" height="24" fill="white" transform="translate(0 0.5)"/>
</clipPath>
<clipPath id="clip1_4_276">
<rect width="24" height="24" fill="white" transform="translate(0 2)"/>
</clipPath>
</defs>
</svg>
